<?xml version="1.0" encoding="utf-8"?>
<svg viewBox="0 0 500 500" xmlns="http://www.w3.org/2000/svg">
    <text style="font-size: 36; font-family: Roboto; white-space: pre;"/>
    <text style="font-size: 36; font-family: Roboto; white-space: pre;"/>
    <text style="font-size: 36; font-family: Roboto; white-space: pre;"/>
    <path d="M 426.154 56.304 L 96.56 56.304 C 79.187 56.304 65.042 70.449 65.042 87.822 L 65.042 416.976 C 65.042 434.349 79.187 448.494 96.56 448.494 L 217.792 448.494 C 229.923 448.494 237.505 435.362 231.44 424.855 C 228.625 419.979 223.422 416.976 217.792 416.976 L 96.59 416.976 L 96.59 87.822 L 426.154 87.822 L 426.154 236.611 C 426.154 248.742 439.287 256.324 449.793 250.258 C 454.669 247.443 457.672 242.241 457.672 236.611 L 457.672 87.852 C 457.672 70.479 443.557 56.333 426.183 56.333 L 426.154 56.304 Z"
          fill="rgb(44, 102, 147)" style=""/>
    <path d="M 138.402 176.9 L 274.953 176.9 C 287.084 176.9 294.666 163.767 288.601 153.261 C 285.786 148.385 280.583 145.381 274.953 145.381 L 138.402 145.381 C 126.271 145.381 118.689 158.514 124.755 169.02 C 127.57 173.896 132.772 176.9 138.402 176.9 Z M 218.93 229.43 L 219.111 229.491 C 206.991 228.968 219.343 229.437 218.762 229.68 C 213.115 232.039 212.537 229.811 218.65 229.547 L 219.253 228.993 C 218.991 228.344 225.042 239.449 218.977 228.943 C 216.162 224.067 224.56 229.401 218.93 229.401 L 218.93 229.43 Z M 218.93 313.45 L 218.692 312.805 C 219.054 312.67 213.041 302.838 219.107 313.345 C 221.922 318.221 213.264 313.209 218.894 313.209 L 218.881 313.276 C 218.079 312.993 216.682 312.822 219.046 312.862 C 219.723 312.873 224.56 313.45 218.93 313.45 Z M 347.234 439.172 C 343.022 439.153 338.999 437.427 336.082 434.388 L 272.869 369.18 C 266.706 362.726 266.706 352.566 272.869 346.113 C 278.958 339.759 289.114 339.759 295.202 346.113 L 347.234 399.818 L 446.69 297.221 C 452.771 290.85 462.942 290.85 469.023 297.221 C 475.186 303.589 475.186 313.89 469.023 320.259 L 358.415 434.418 C 355.494 437.445 351.471 439.16 347.263 439.172 L 347.234 439.172 Z"
          fill="rgb(44, 102, 147)" style=""/>
</svg>
