<svg class="svg-icon" style="width: 1em; height: 1em;vertical-align: middle;fill: currentColor;overflow: hidden;"
     viewBox="0 0 1024 1024" version="1.1" xmlns="http://www.w3.org/2000/svg">
    <path d="M0 0h1024v1024H0z" fill="#FFFFFF" fill-opacity=".01"/>
    <path d="M820.337778 120.888889H181.418667c-33.678222 0-61.098667 27.420444-61.098667 61.098667v638.065777c0 33.678222 27.420444 61.098667 61.098667 61.098667H416.426667a30.549333 30.549333 0 1 0 0-61.098667H181.475556V181.987556h638.862222v288.426666a30.549333 30.549333 0 1 0 61.098666 0V182.044444c0-33.678222-27.363556-61.098667-61.041777-61.098666z"
          fill="rgb(44, 102, 147)"/>
    <path d="M260.323556 344.917333h264.704a30.549333 30.549333 0 1 0 0-61.098666H260.323556a30.549333 30.549333 0 1 0 0 61.098666z m156.103111 101.831111H260.323556a30.549333 30.549333 0 1 0 0 61.041778H416.426667a30.549333 30.549333 0 1 0 0-61.098666z m0 162.872889H260.323556a30.549333 30.549333 0 1 0 0 61.098667H416.426667a30.549333 30.549333 0 1 0 0-61.098667zM665.144889 853.333333a30.151111 30.151111 0 0 1-21.617778-9.272889l-122.538667-126.407111a32.369778 32.369778 0 0 1 0-44.714666 29.980444 29.980444 0 0 1 43.292445 0l100.864 104.106666 192.796444-198.883555a29.923556 29.923556 0 0 1 43.292445 0c11.946667 12.344889 11.946667 32.312889 0 44.657778l-214.414222 221.297777a30.151111 30.151111 0 0 1-21.617778 9.216z"
          fill="rgb(44, 102, 147)"/>
</svg>
