<svg class="svg-icon" style="width: 1em;height: 1em;vertical-align: middle;fill: currentColor;overflow: hidden;"
     viewBox="0 0 1024 1024" version="1.1" xmlns="http://www.w3.org/2000/svg">
    <path fill="rgb(44, 102, 147)"
          d="M714.32192 493.99808l49.43872-49.43872a20.48 20.48 0 0 1 28.95872 0l49.43872 49.43872A61.44 61.44 0 0 1 860.16 537.45664V860.16a40.96 40.96 0 0 1-40.96 40.96h-81.92a40.96 40.96 0 0 1-40.96-40.96V537.45664a61.44 61.44 0 0 1 18.00192-43.45856z m-249.28256 114.40128l32.48128 32.48128a20.48 20.48 0 0 0 28.95872 0l32.48128-32.48128a20.48 20.48 0 0 1 34.95936 14.47936V860.16a40.96 40.96 0 0 1-40.96 40.96h-81.92a40.96 40.96 0 0 1-40.96-40.96V622.87872a20.48 20.48 0 0 1 34.95936-14.47936zM184.832 718.92992l108.89216-95.29344a20.48 20.48 0 0 1 33.95584 15.42144V860.16a40.96 40.96 0 0 1-40.96 40.96h-81.92a40.96 40.96 0 0 1-40.96-40.96v-95.00672a61.44 61.44 0 0 1 20.992-46.22336z m356.1472-177.9712a40.96 40.96 0 0 1-57.9584 0l-95.232-95.25248-196.4032 178.52416a40.96 40.96 0 1 1-55.0912-60.6208l225.28-204.8a40.96 40.96 0 0 1 56.5248 1.35168L512 454.08256l166.46144-184.89344c11.0592-13.66016 10.0352-33.46432-2.41664-45.8752l-52.224-52.224c-8.23296-8.25344-7.92576-21.95456 0.7168-30.59712a22.7328 22.7328 0 0 1 14.90944-6.67648l229.1712-10.89536a30.69952 30.69952 0 0 1 32.4608 32.4608l-10.89536 229.1712a22.87616 22.87616 0 0 1-22.65088 21.6064c-5.5296 0-10.77248-2.1504-14.60224-5.98016l-52.224-52.224a34.34496 34.34496 0 0 0-45.8752-2.41664l-213.87264 195.42016z"/>
</svg>
